<?xml version="1.0" encoding="UTF-8" standalone="no"?>
<!-- Created with Bouml (http://bouml.free.fr/) -->
<!DOCTYPE svg PUBLIC "-//W3C//DTD SVG 1.1//EN" "http://www.w3.org/Graphics/SVG/1.1/DTD/svg11.dtd">
<svg width="675" height="256" version="1.1" xmlns="http://www.w3.org/2000/svg">
<g>
	<rect fill="#cbcbcb" stroke="none" stroke-opacity="1" x="415" y="116" width="3" height="35" />
	<rect fill="#cbcbcb" stroke="none" stroke-opacity="1" x="351" y="148" width="67" height="3" />
	<rect fill="#ffffc0" stroke="black" stroke-width="1" stroke-opacity="1" x="347" y="112" width="68" height="36" />
	<text font-family="Helvetica" font-size="8" fill="#000000" xml:space="preserve" font-weight="bold" text-anchor="middle" x="381" y="122">Presenter</text>
	<line stroke="black" stroke-opacity="1" x1="347" y1="132" x2="415" y2="132" />
	<line stroke="black" stroke-opacity="1" x1="347" y1="140" x2="415" y2="140" />
</g>
<g>
	<rect fill="#cbcbcb" stroke="none" stroke-opacity="1" x="278" y="196" width="3" height="47" />
	<rect fill="#cbcbcb" stroke="none" stroke-opacity="1" x="176" y="240" width="105" height="3" />
	<rect fill="#ffffc0" stroke="black" stroke-width="1" stroke-opacity="1" x="172" y="192" width="106" height="48" />
	<text font-family="Helvetica" font-size="8" fill="#000000" xml:space="preserve" font-weight="bold" text-anchor="middle" x="225" y="202">UserPresenter</text>
	<line stroke="black" stroke-opacity="1" x1="172" y1="212" x2="278" y2="212" />
	<line stroke="black" stroke-opacity="1" x1="172" y1="220" x2="278" y2="220" />
	<text font-family="Helvetica" font-size="8" fill="#000000" xml:space="preserve" x="176" y="230">createUserView()</text>
</g>
<g>
	<rect fill="#cbcbcb" stroke="none" stroke-opacity="1" x="659" y="201" width="3" height="35" />
	<rect fill="#cbcbcb" stroke="none" stroke-opacity="1" x="537" y="233" width="125" height="3" />
	<rect fill="#ffffc0" stroke="black" stroke-width="1" stroke-opacity="1" x="533" y="197" width="126" height="36" />
	<text font-family="Helvetica" font-size="8" fill="#000000" xml:space="preserve" font-weight="bold" text-anchor="middle" x="596" y="207">HeatmapPresenter</text>
	<line stroke="black" stroke-opacity="1" x1="533" y1="217" x2="659" y2="217" />
	<line stroke="black" stroke-opacity="1" x1="533" y1="225" x2="659" y2="225" />
</g>
</svg>
